<svg width="1280" height="640" viewBox="0 0 1280 640" fill="none" xmlns="http://www.w3.org/2000/svg">
  <defs>
    <linearGradient id="bg" x1="90" y1="44" x2="1188" y2="610" gradientUnits="userSpaceOnUse">
      <stop stop-color="#090C18"/>
      <stop offset="0.5" stop-color="#1A113C"/>
      <stop offset="1" stop-color="#2A1050"/>
    </linearGradient>
    <radialGradient id="pinkGlow" cx="0" cy="0" r="1" gradientUnits="userSpaceOnUse" gradientTransform="translate(992 124) rotate(90) scale(238 284)">
      <stop stop-color="#FF4FD8" stop-opacity="0.36"/>
      <stop offset="1" stop-color="#FF4FD8" stop-opacity="0"/>
    </radialGradient>
    <radialGradient id="cyanGlow" cx="0" cy="0" r="1" gradientUnits="userSpaceOnUse" gradientTransform="translate(1026 490) rotate(90) scale(244 320)">
      <stop stop-color="#00E6FF" stop-opacity="0.28"/>
      <stop offset="1" stop-color="#00E6FF" stop-opacity="0"/>
    </radialGradient>
    <linearGradient id="sun" x1="932" y1="142" x2="932" y2="346" gradientUnits="userSpaceOnUse">
      <stop stop-color="#FFD166"/>
      <stop offset="0.48" stop-color="#FF8A5B"/>
      <stop offset="1" stop-color="#FF4FD8"/>
    </linearGradient>
    <linearGradient id="title" x1="118" y1="176" x2="604" y2="382" gradientUnits="userSpaceOnUse">
      <stop stop-color="#FFFFFF"/>
      <stop offset="0.52" stop-color="#A5F9FF"/>
      <stop offset="1" stop-color="#FFD9F7"/>
    </linearGradient>
    <linearGradient id="accent" x1="100" y1="430" x2="1090" y2="252" gradientUnits="userSpaceOnUse">
      <stop stop-color="#00E6FF"/>
      <stop offset="0.48" stop-color="#7C5CFF"/>
      <stop offset="1" stop-color="#FF4FD8"/>
    </linearGradient>
  </defs>

  <rect width="1280" height="640" rx="28" fill="url(#bg)"/>
  <rect width="1280" height="640" rx="28" fill="url(#pinkGlow)"/>
  <rect width="1280" height="640" rx="28" fill="url(#cyanGlow)"/>

  <g opacity="0.36">
    <path d="M0 462H1280" stroke="#FFD166" stroke-opacity="0.16"/>
    <path d="M0 484H1280" stroke="#FFD166" stroke-opacity="0.14"/>
    <path d="M0 520H1280" stroke="#FFD166" stroke-opacity="0.12"/>
    <path d="M0 570H1280" stroke="#FFD166" stroke-opacity="0.1"/>
  </g>

  <circle cx="1046" cy="188" r="78" fill="url(#sun)"/>
  <path d="M970 154H1122" stroke="#2A173C" stroke-width="8" stroke-linecap="round"/>
  <path d="M978 186H1114" stroke="#2A173C" stroke-width="8" stroke-linecap="round"/>
  <path d="M988 218H1104" stroke="#2A173C" stroke-width="8" stroke-linecap="round"/>
  <path d="M998 250H1094" stroke="#2A173C" stroke-width="8" stroke-linecap="round"/>
  <path d="M110 428C246 384 360 364 496 362C646 360 794 370 932 392C1056 412 1132 428 1182 440" stroke="url(#accent)" stroke-width="3" stroke-linecap="round" stroke-dasharray="2 12" opacity="0.58"/>

  <rect x="76" y="88" width="736" height="388" rx="30" fill="#09101C" fill-opacity="0.28" stroke="#FFFFFF" stroke-opacity="0.1"/>
  <rect x="108" y="122" width="250" height="36" rx="18" fill="#FFFFFF" fill-opacity="0.06" stroke="#FFFFFF" stroke-opacity="0.1"/>
  <text x="132" y="146" fill="#B9FBFF" font-family="Arial, Helvetica, sans-serif" font-size="14" font-style="italic" font-weight="700" letter-spacing="0.24em">OPENCODE-FIRST SKILL PACK</text>

  <text x="106" y="248" fill="url(#title)" font-family="Arial, Helvetica, sans-serif" font-size="92" font-style="italic" font-weight="900">nebu-skills</text>
  <text x="108" y="314" fill="#F7ECFF" font-family="Arial, Helvetica, sans-serif" font-size="28" font-weight="700">Workflow skills and routing support for</text>
  <text x="108" y="352" fill="#F7ECFF" font-family="Arial, Helvetica, sans-serif" font-size="28" font-weight="700">OpenCode, GitHub Copilot, and Claude Code.</text>
  <text x="108" y="410" fill="#A8BEDF" font-family="Arial, Helvetica, sans-serif" font-size="21" font-weight="600">Kaizen default. Proportional review and verification.</text>

  <rect x="108" y="438" width="156" height="50" rx="25" fill="#00E6FF" fill-opacity="0.15" stroke="#00E6FF" stroke-opacity="0.5"/>
  <text x="145" y="470" fill="#B9FBFF" font-family="Arial, Helvetica, sans-serif" font-size="20" font-weight="900">17 skills</text>
  <rect x="280" y="438" width="174" height="50" rx="25" fill="#7C5CFF" fill-opacity="0.18" stroke="#7C5CFF" stroke-opacity="0.44"/>
  <text x="311" y="470" fill="#E3DBFF" font-family="Arial, Helvetica, sans-serif" font-size="20" font-weight="900">router plugin</text>
  <rect x="470" y="438" width="172" height="50" rx="25" fill="#FF4FD8" fill-opacity="0.16" stroke="#FF4FD8" stroke-opacity="0.46"/>
  <text x="507" y="470" fill="#FFD7F4" font-family="Arial, Helvetica, sans-serif" font-size="20" font-weight="900">3 platforms</text>
</svg>
